<svg viewBox="0 0 3077 433" height="433" width="3077" xmlns:xlink="http://www.w3.org/1999/xlink" xmlns="http://www.w3.org/2000/svg"><path d="M328.559 1.20432C332.638 1.3089 336.646 1.20059 340.799 1.34826C348.667 19.537 355.585 38.8872 363.245 57.2069C366.034 63.8754 368.76 71.4699 371.766 77.9654C367.904 77.914 364.041 77.9174 360.179 77.9755C359.26 76.1894 357.6 71.7457 356.788 69.7233C354.316 63.5236 351.893 57.3045 349.519 51.0667C340.341 49.437 336.91 50.3372 327.711 51.7382L319.401 52.9481C317.14 59.3443 311.959 71.9421 309.199 77.9478C305.331 77.9225 301.501 77.8739 297.634 78.0179C300.644 70.0629 304.406 60.5047 307.73 52.7086C295.512 49.1639 298.574 49.2974 298.564 37.0521C302.162 39.8167 307.483 41.3255 311.775 42.5798C314.437 35.1555 318.285 26.6713 321.154 19.1769C322.708 15.1175 326.638 4.79421 328.559 1.20432ZM332.46 40.0389C337.127 39.4729 340.215 39.0814 344.971 39.5148C343.624 36.1394 335.589 15.3903 334.613 14.4367C331.504 23.1496 327.254 33.0642 323.701 41.7047L332.46 40.0389Z" transform="scale(5.1541 5.15476)" fill="#B0977D"></path><path d="M114.122 0.848437C117.661 0.894385 121.201 0.902584 124.74 0.873032C124.744 0.936161 124.745 0.999359 124.745 1.06257L124.775 36.5012C124.775 38.9724 124.798 41.4601 124.775 43.9265C124.682 53.6774 126.134 62.3131 118.458 69.7984C106.07 81.8793 81.1529 81.6762 68.6976 69.825C61.6822 63.1498 61.9397 55.3597 61.9264 46.5208L61.9379 26.3615C64.7591 26.5322 69.8991 26.4827 72.6864 26.2198C72.5561 35.096 72.6051 44.4566 72.6174 53.2934C72.6429 71.5289 110.086 73.6823 113.605 56.6568C114.496 52.3471 114.046 42.8649 114.086 38.1141C114.19 25.7429 113.927 13.2143 114.122 0.848437Z" transform="scale(5.1541 5.15476)" fill="#5C412B"></path><path d="M16.855 2.42881C30.9152 0.902459 39.7486 8.1904 52.6513 10.9759C54.92 11.4657 59.1558 11.3871 61.0033 9.89977C62.8395 8.42157 63.0617 4.5614 63.3438 2.29048C66.9355 2.34708 70.5279 2.33059 74.1188 2.24102C73.1457 9.35416 71.5579 16.1916 64.4931 19.7709C57.6638 23.2309 48.8805 21.4156 41.9549 19.1929C42.4072 30.5631 41.9838 45.96 41.9839 57.6042C41.9819 64.591 41.8357 72.1877 42.1018 79.1269C38.7627 78.8754 34.7588 78.9568 31.4262 79.1397L31.4503 14.703C31.2291 14.6295 31.0076 14.5573 30.7857 14.4862C25.0027 12.6358 18.4593 11.4295 12.8535 14.3178C12.1628 15.702 11.4884 17.259 10.8396 18.6766C7.66623 18.5224 3.95059 18.5855 0.736651 18.5611C1.33332 8.59299 7.35387 3.67418 16.855 2.42881Z" transform="scale(5.1541 5.15476)" fill="#5C412B"></path><path d="M472.94 1.20811C476.489 1.3146 480.169 1.21293 483.728 1.16304C483.6 16.6385 483.569 32.1147 483.635 47.5905C483.636 53.972 483.776 61.0301 483.565 67.3596C491.951 67.1618 500.682 67.5077 509.093 67.365C512.942 67.2997 518.083 67.5642 521.805 67.0586C521.735 69.0181 521.961 76.7718 521.603 77.9549L520.991 78.1449C515.631 77.8667 509.03 78.0192 503.574 78.016L472.631 78.0883C472.429 74.5076 472.648 68.3225 472.652 64.5669L472.668 36.3042L472.651 14.6942C472.648 10.9176 472.518 4.86537 472.94 1.20811Z" transform="scale(5.1541 5.15476)" fill="#B0977D"></path><path d="M451.115 1.10554C453.698 1.39366 459.391 1.29873 462.015 1.1417C462.281 18.7483 461.802 36.6799 462.015 54.3101C462.107 61.9376 461.743 70.6758 462.178 78.1896C459.335 77.8548 454.177 78.1056 451.181 78.2159C451.233 52.7017 451.47 26.5777 451.115 1.10554Z" transform="scale(5.1541 5.15476)" fill="#B0977D"></path><path d="M244.647 0L256.101 0C256.56 0.238021 261.015 1.43026 261.832 1.64441C272.091 4.33311 281.223 12.0687 286.229 21.4842C290.972 30.4946 292.005 41.0039 289.107 50.7662C285.975 61.0621 278.884 69.6916 269.393 74.7567C259.802 79.7715 248.617 80.7797 238.284 77.5607C228.163 74.4506 219.931 67.0329 215.01 57.7373C210.218 48.6232 209.251 37.9751 212.321 28.1458C216.438 14.7893 227.647 3.92269 241.403 1.03144C242.425 0.816629 243.73 0.485379 244.647 0ZM254.069 68.5497C270.08 66.6161 281.46 52.0155 279.434 36.0075C277.408 19.9995 262.749 8.69876 246.762 10.82C230.907 12.9238 219.726 27.4435 221.735 43.3193C223.745 59.1952 238.191 70.4673 254.069 68.5497Z" transform="scale(5.1541 5.15476)" fill="#5C412B"></path><path d="M551.423 0L562.14 0C565.169 1.03117 568.018 1.43128 571.276 2.62422C580.803 6.17081 588.608 13.2376 593.083 22.3692C595.292 26.8618 595.778 29.635 597 34.2874L597 45.1229C595.783 49.8721 594.889 53.4915 592.617 57.8758C587.729 67.2365 579.347 74.2887 569.291 77.4997C559.078 80.7012 548.017 79.7683 538.484 74.9012C529.029 69.9437 521.927 61.4346 518.737 51.2423C515.721 41.3597 516.715 30.6865 521.503 21.5314C526.175 12.5893 533.081 6.19149 542.567 2.51997C545.278 1.47047 548.562 0.897951 551.423 0ZM560.723 68.4997C576.671 66.4442 587.923 51.8275 585.838 35.875C583.753 19.9225 569.123 8.69226 553.183 10.809C537.287 12.9199 526.1 27.5099 528.179 43.4192C530.259 59.3285 544.819 70.5496 560.723 68.4997Z" transform="scale(5.1541 5.15476)" fill="#B0977D"></path><path d="M556.479 29.5224C558.039 29.9466 558.477 34.2517 559.433 35.735C561.152 38.4007 564.139 38.4906 566.644 39.7105L566.653 40.1597C565.985 40.7449 564.724 41.2846 563.898 41.5455C558.547 43.236 558.974 46.3785 557.009 50.9681C555.63 50.08 555.401 45.9585 554.008 44.0749C552.161 41.5793 548.967 41.7744 547.114 40.4236L547.177 39.9466C548.364 38.967 550.352 38.564 551.779 37.8339C554.636 36.3726 555.546 32.4489 556.479 29.5224Z" transform="scale(5.1541 5.15476)" fill="#B0977D"></path><path d="M147.392 0L164.919 0C165.655 0.373525 171.008 1.3652 172.199 1.64108C181.082 3.59231 188.583 7.85992 194.659 14.6013C207.837 29.2226 206.532 55.2014 191.506 68.1703C175.58 81.9165 152.279 79.426 132.7 78.113C132.338 70.0143 132.619 59.9098 132.619 51.6448L132.625 1.6551C135.911 1.18061 145.098 0.911838 147.392 0ZM143.502 11.7475C143.886 17.211 143.635 25.3337 143.628 30.9573L143.647 67.8726C155.964 69.1624 167.247 69.5993 178.622 63.6966C201.611 50.2443 195.78 17.9544 170.142 12.4898C164.829 11.3574 158.634 10.2324 153.191 10.9145C149.956 11.1273 146.726 11.405 143.502 11.7475Z" transform="scale(5.1541 5.15476)" fill="#5C412B"></path><path d="M382.582 1.22151L393.388 1.21429C393.489 9.27457 393.209 17.2806 393.358 25.4278C399.538 27.1944 403.699 28.9023 408.492 33.3916C409.883 31.3388 411.409 29.436 412.892 27.4549C418.466 20.0123 422.018 10.6654 422.389 1.34656C425.726 1.40183 429.813 1.56112 433.094 1.3287C432.525 18.1627 425.802 29.7332 414.905 42.1652C420.003 49.795 422.826 58.5958 428.157 66.0295C431.629 70.8723 435.041 72.3416 440.693 72.7598C440.667 74.6737 440.689 82.6167 440.209 84L439.084 84C435.518 82.7223 433.229 82.9248 429.104 80.8099C418.198 75.2175 411.811 59.5938 406.568 48.8109C402.734 51.9772 397.762 53.2724 392.914 53.8727C393.017 58.9568 393.045 64.0421 392.998 69.1271C392.997 71.5776 392.9 75.8687 393.244 78.1775C390.024 77.9914 385.53 78.0098 382.252 78.2192C382.248 71.0116 381.951 60.7772 382.366 53.8452C374.313 51.9313 369.867 43.7589 371.747 35.8246C372.635 31.944 375.04 28.5816 378.426 26.4901C379.807 25.6392 381.24 25.1481 382.804 24.752C382.402 22.209 382.502 17.182 382.529 14.4643C382.573 10.143 382.45 5.51578 382.582 1.22151ZM395.64 42.9285C397.899 42.2119 399.295 41.5506 401.445 40.5384C397.335 37.5376 391.005 33.8766 385.728 34.6938C380.524 37.057 380.295 42.976 386.147 44.3911C388.975 45.0751 392.898 43.8881 395.64 42.9285Z" transform="scale(5.1541 5.15476)" fill="#B0977D"></path></svg>